<?xml version="1.0" encoding="UTF-8" standalone="no"?>
<svg
   xmlns:dc="http://purl.org/dc/elements/1.1/"
   xmlns:cc="http://creativecommons.org/ns#"
   xmlns:rdf="http://www.w3.org/1999/02/22-rdf-syntax-ns#"
   xmlns:svg="http://www.w3.org/2000/svg"
   xmlns="http://www.w3.org/2000/svg"
   xmlns:sodipodi="http://sodipodi.sourceforge.net/DTD/sodipodi-0.dtd"
   xmlns:inkscape="http://www.inkscape.org/namespaces/inkscape"
   version="1.1"
   id="svg2"
   xml:space="preserve"
   width="1066.6667"
   height="1066.6667"
   viewBox="0 0 1066.6667 1066.6667"
   sodipodi:docname="file.eps"><metadata
     id="metadata8"><rdf:RDF><cc:Work
         rdf:about=""><dc:format>image/svg+xml</dc:format><dc:type
           rdf:resource="http://purl.org/dc/dcmitype/StillImage" /></cc:Work></rdf:RDF></metadata><defs
     id="defs6" /><sodipodi:namedview
     pagecolor="#ffffff"
     bordercolor="#666666"
     borderopacity="1"
     objecttolerance="10"
     gridtolerance="10"
     guidetolerance="10"
     inkscape:pageopacity="0"
     inkscape:pageshadow="2"
     inkscape:window-width="640"
     inkscape:window-height="480"
     id="namedview4" /><g
     id="g10"
     inkscape:groupmode="layer"
     inkscape:label="ink_ext_XXXXXX"
     transform="matrix(1.3333333,0,0,-1.3333333,0,1066.6667)"><g
       id="g12"
       transform="scale(0.1)"><path
         d="M 8000,0 H 0 V 8000 H 8000 V 0"
         style="fill:#ffffff;fill-opacity:1;fill-rule:nonzero;stroke:none"
         id="path14" /><path
         d="m 7799.58,3999.97 c 0,-2098.45 -1701.09,-3799.56 -3799.56,-3799.56 -2098.49,0 -3799.598,1701.11 -3799.598,3799.56 0,2098.4 1701.108,3799.62 3799.598,3799.62 2098.47,0 3799.56,-1701.22 3799.56,-3799.62"
         style="fill:#fbca4c;fill-opacity:1;fill-rule:nonzero;stroke:none"
         id="path16" /><path
         d="M 6558.01,5158.86 H 2628.46 l -4.89,8.13 -135.98,156.6 247.4,43.53 644.75,113.38 607.35,106.86 644.75,113.49 607.47,106.8 644.74,113.39 602.99,106.06 -0.76,4.9 -95.13,540.01 0.1,0.01 -9.77,55.2 h -0.05 l -5.68,32.36 -565.02,-99.4 -607.48,-106.85 -644.76,-113.37 -607.33,-106.88 -644.64,-113.43 -607.46,-106.75 -644.78,-113.54 -141.19,-24.82 c -23.57,4.58 -47.13,6.45 -69.94,4.88 l -151.85,-10.33 c -51.1,-3.48 -98.34,-24.72 -137.06,-57.65 l -107.43,-18.9 -4.83,-0.82 22.13,-125.59 c -6.02,-23.23 -9.43,-47.51 -9.43,-72.43 v -849.04 c 0,-85.18 36.83,-161 93.89,-209.84 v -18.21 h 24.25 c 29.65,-19.6 63.27,-32.69 99.39,-36.95 V 1463.34 c 0,-86.04 69.64,-155.7 155.67,-155.7 h 4423.9 c 85.92,0 155.62,69.66 155.62,155.7 v 3022.78 c 0,10.44 -1.05,20.63 -3.03,30.49 h 153.64 v 642.25"
         style="fill:#df834d;fill-opacity:1;fill-rule:nonzero;stroke:none"
         id="path18" /><path
         d="m 1453.54,4752.74 c 0,86.02 69.63,155.72 155.66,155.72 h 4423.92 c 85.89,0 155.62,-69.7 155.62,-155.72 V 1729.96 c 0,-86.03 -69.73,-155.72 -155.62,-155.72 H 1609.2 c -86.03,0 -155.66,69.69 -155.66,155.72 v 3022.78"
         style="fill:#292930;fill-opacity:1;fill-rule:nonzero;stroke:none"
         id="path20" /><path
         d="M 5538.13,2173.52 H 2001.84 v 49.47 h 3536.29 v -49.47"
         style="fill:#fadfae;fill-opacity:1;fill-rule:nonzero;stroke:none"
         id="path22" /><path
         d="m 4630.37,2173.52 h -49.64 v -395.73 h 49.64 v 395.73"
         style="fill:#fadfae;fill-opacity:1;fill-rule:nonzero;stroke:none"
         id="path24" /><path
         d="m 2959.25,2173.52 h -49.52 v -395.73 h 49.52 v 395.73"
         style="fill:#fadfae;fill-opacity:1;fill-rule:nonzero;stroke:none"
         id="path26" /><path
         d="m 3781.95,2662.54 c -430.63,0 -779.79,349.2 -779.79,779.76 0,430.61 349.16,779.72 779.79,779.72 430.56,0 779.7,-349.11 779.7,-779.72 0,-430.56 -349.14,-779.76 -779.7,-779.76 z m 0,1681.06 c -497.79,0 -901.32,-403.66 -901.32,-901.3 0,-497.73 403.53,-901.26 901.32,-901.26 497.72,0 901.2,403.53 901.2,901.26 0,497.64 -403.48,901.3 -901.2,901.3"
         style="fill:#211c1d;fill-opacity:1;fill-rule:nonzero;stroke:none"
         id="path28" /><path
         d="m 2985.87,3442.3 c 0,438.93 357.12,796.04 796.08,796.04 438.96,0 795.98,-357.11 795.98,-796.04 0,-438.94 -357.02,-796.03 -795.98,-796.03 -438.96,0 -796.08,357.09 -796.08,796.03 z m -88.89,0 c 0,-487.96 397.01,-884.92 884.97,-884.92 487.92,0 884.87,396.96 884.87,884.92 0,488.01 -396.95,884.95 -884.87,884.95 -487.96,0 -884.97,-396.94 -884.97,-884.95"
         style="fill:#fadfae;fill-opacity:1;fill-rule:nonzero;stroke:none"
         id="path30" /><path
         d="M 6033.12,4790.02 H 1609.2 c -20.56,0 -37.29,-16.74 -37.29,-37.28 V 1729.96 c 0,-15.51 9.55,-28.83 23.04,-34.37 213.42,698.67 657.77,1311.3 1254.24,1768.61 11.8,504.78 425.19,911.97 932.76,911.97 212.6,0 408.18,-72.23 565.31,-192.28 343.77,87.04 706.1,134.33 1080.94,134.33 218.55,0 433.05,-16.08 642.18,-46.56 v 481.08 c 0,20.54 -16.84,37.28 -37.26,37.28"
         style="fill:#4b505c;fill-opacity:1;fill-rule:nonzero;stroke:none"
         id="path32" /><path
         d="m 3412.31,3888.42 c 0,38.85 15.5,70.13 42.44,85.68 26.99,15.67 61.88,13.48 95.63,-6.01 l 69.99,-40.39 c 155.82,71.55 317.32,134.57 484.16,187.46 -97.79,47.06 -206.94,74.22 -322.58,74.22 -353.81,0 -650.3,-247.35 -727.19,-578.03 114.67,76.81 233.84,148.45 357.55,214 0,39.3 0,63.07 0,63.07"
         style="fill:#5c595a;fill-opacity:1;fill-rule:nonzero;stroke:none"
         id="path34" /><path
         d="m 4306.55,3390.88 c 49.08,28.3 49.08,74.69 0,102.89 l -297.13,171.58 c -48.93,28.38 -129.23,74.59 -178.22,102.93 l -297.17,171.56 c -48.95,28.3 -89.1,5.12 -89.1,-51.54 v -343.01 c 0,-56.7 0,-149.35 0,-205.95 v -343.11 c 0,-56.6 40.15,-79.63 89.1,-51.33 l 297.17,171.43 c 48.99,28.32 129.29,74.71 178.22,103.06 l 297.13,171.49"
         style="fill:#211c1d;fill-opacity:1;fill-rule:nonzero;stroke:none"
         id="path36" /><path
         d="m 3479.24,3931.82 c -11.47,-6.62 -18.04,-22.52 -17.98,-43.52 v -892.07 c 0,-20.94 6.51,-36.72 17.98,-43.36 11.45,-6.62 28.53,-4.37 46.65,6.19 l 297.17,171.39 475.35,274.53 c 18.18,10.49 28.63,24.14 28.63,37.4 0,13.21 -10.45,26.76 -28.63,37.29 l -772.46,446.01 c -18.18,10.57 -35.26,12.76 -46.71,6.14"
         style="fill:#fadfae;fill-opacity:1;fill-rule:nonzero;stroke:none"
         id="path38" /><path
         d="m 2900.73,3517.21 c 32.69,23.88 65.54,47.52 99.07,70.49 68.56,369.66 392.9,650.64 782.15,650.64 139,0 269.6,-35.96 383.43,-98.81 38.35,11.34 76.86,22.46 115.79,32.78 -142.24,97.61 -314.06,154.94 -499.22,154.94 -462.69,0 -842.91,-357.07 -881.22,-810.04"
         style="fill:#dcc199;fill-opacity:1;fill-rule:nonzero;stroke:none"
         id="path40" /><path
         d="m 3479.24,3931.82 c -11.47,-6.62 -18.04,-22.52 -17.98,-43.52 v -27.85 c 31.8,16.03 63.79,31.78 96.14,47.11 l -31.45,18.12 c -18.18,10.57 -35.26,12.76 -46.71,6.14"
         style="fill:#dcc199;fill-opacity:1;fill-rule:nonzero;stroke:none"
         id="path42" /><path
         d="m 5592.06,6826.8 675.53,-528.19 0.76,-4.88 -602.98,-106.09 -680.78,532.29 607.47,106.87"
         style="fill:#fadfae;fill-opacity:1;fill-rule:nonzero;stroke:none"
         id="path44" /><path
         d="m 3087.85,6386.26 680.58,-532.27 -607.36,-106.86 -680.7,532.4 607.48,106.73"
         style="fill:#fadfae;fill-opacity:1;fill-rule:nonzero;stroke:none"
         id="path46" /><path
         d="m 1835.61,6165.98 680.7,-532.24 -607.35,-106.87 -680.83,532.3 607.48,106.81"
         style="fill:#fadfae;fill-opacity:1;fill-rule:nonzero;stroke:none"
         id="path48" /><path
         d="m 4339.82,6606.56 680.81,-532.3 -607.49,-106.8 -680.64,532.22 607.32,106.88"
         style="fill:#fadfae;fill-opacity:1;fill-rule:nonzero;stroke:none"
         id="path50" /><path
         d="m 6157.06,6926.19 110.53,-627.58 -675.53,528.19 z"
         style="fill:#292930;fill-opacity:1;fill-rule:nonzero;stroke:none"
         id="path52" /><path
         d="m 4984.59,6719.93 680.78,-532.29 -644.74,-113.38 -680.81,532.3 644.77,113.37"
         style="fill:#292930;fill-opacity:1;fill-rule:nonzero;stroke:none"
         id="path54" /><path
         d="m 3732.5,6499.68 680.64,-532.22 -644.71,-113.47 -680.58,532.27 644.65,113.42"
         style="fill:#292930;fill-opacity:1;fill-rule:nonzero;stroke:none"
         id="path56" /><path
         d="m 2480.37,6279.53 680.7,-532.4 -644.76,-113.39 -680.7,532.24 644.76,113.55"
         style="fill:#292930;fill-opacity:1;fill-rule:nonzero;stroke:none"
         id="path58" /><path
         d="m 1223.31,6058.33 4.82,0.84 680.83,-532.3 -574.23,-101.02 -111.42,632.48"
         style="fill:#292930;fill-opacity:1;fill-rule:nonzero;stroke:none"
         id="path60" /><path
         d="m 5627.88,6799.79 59.42,-46.49 -607.36,-106.86 -59.55,46.49 607.49,106.86"
         style="fill:#fefde8;fill-opacity:1;fill-rule:nonzero;stroke:none"
         id="path62" /><path
         d="m 4375.65,6579.5 59.64,-46.5 -607.47,-106.81 -59.51,46.5 607.34,106.81"
         style="fill:#fefde8;fill-opacity:1;fill-rule:nonzero;stroke:none"
         id="path64" /><path
         d="m 3123.67,6359.25 59.42,-46.49 -607.47,-106.81 -59.31,46.44 607.36,106.86"
         style="fill:#fefde8;fill-opacity:1;fill-rule:nonzero;stroke:none"
         id="path66" /><path
         d="m 1871.56,6138.95 59.29,-46.44 -607.47,-106.85 -59.41,46.49 607.59,106.8"
         style="fill:#f0f0f0;fill-opacity:1;fill-rule:nonzero;stroke:none"
         id="path68" /><path
         d="m 6162.79,6893.84 9.8,-55.2 -485.29,-85.34 -59.42,46.49 534.91,94.05"
         style="fill:#4b505c;fill-opacity:1;fill-rule:nonzero;stroke:none"
         id="path70" /><path
         d="m 5020.39,6692.93 59.55,-46.49 -644.65,-113.44 -59.64,46.5 644.74,113.43"
         style="fill:#4b505c;fill-opacity:1;fill-rule:nonzero;stroke:none"
         id="path72" /><path
         d="m 3768.31,6472.69 59.51,-46.5 -644.73,-113.43 -59.42,46.49 644.64,113.44"
         style="fill:#4b505c;fill-opacity:1;fill-rule:nonzero;stroke:none"
         id="path74" /><path
         d="m 2516.31,6252.39 59.31,-46.44 -644.77,-113.44 -59.29,46.44 644.75,113.44"
         style="fill:#4b505c;fill-opacity:1;fill-rule:nonzero;stroke:none"
         id="path76" /><path
         d="m 1323.38,5985.66 -84.45,-14.88 -9.78,55.25 34.82,6.12 59.41,-46.49"
         style="fill:#4b505c;fill-opacity:1;fill-rule:nonzero;stroke:none"
         id="path78" /><path
         d="M 1903.56,5425.46 1329.9,4788.23 v -5.01 h 612.29 l 578.04,642.24 h -616.67"
         style="fill:#fadfae;fill-opacity:1;fill-rule:nonzero;stroke:none"
         id="path80" /><path
         d="m 4446.41,5425.46 -578.34,-642.24 h 616.73 l 578.4,642.24 h -616.79"
         style="fill:#fadfae;fill-opacity:1;fill-rule:nonzero;stroke:none"
         id="path82" /><path
         d="m 5717.6,5425.46 -578.05,-642.24 h 616.7 l 578.15,642.24 h -616.8"
         style="fill:#fadfae;fill-opacity:1;fill-rule:nonzero;stroke:none"
         id="path84" /><path
         d="m 3175,5425.46 -578.27,-642.24 h 616.8 l 578.14,642.24 H 3175"
         style="fill:#fadfae;fill-opacity:1;fill-rule:nonzero;stroke:none"
         id="path86" /><path
         d="m 2520.23,5425.46 -578.04,-642.24 h 654.54 L 3175,5425.46 h -654.77"
         style="fill:#292930;fill-opacity:1;fill-rule:nonzero;stroke:none"
         id="path88" /><path
         d="m 3791.67,5425.46 -578.14,-642.24 h 654.54 l 578.34,642.24 h -654.74"
         style="fill:#292930;fill-opacity:1;fill-rule:nonzero;stroke:none"
         id="path90" /><path
         d="m 5063.2,5425.46 -578.4,-642.24 h 654.75 l 578.05,642.24 h -654.4"
         style="fill:#292930;fill-opacity:1;fill-rule:nonzero;stroke:none"
         id="path92" /><path
         d="m 6339.34,5425.46 h -4.94 l -578.15,-642.24 h 583.09 v 642.24"
         style="fill:#292930;fill-opacity:1;fill-rule:nonzero;stroke:none"
         id="path94" /><path
         d="m 1873.02,5392.62 -50.54,-56.11 h 616.67 l 50.54,56.11 h -616.67"
         style="fill:#f0f0f0;fill-opacity:1;fill-rule:nonzero;stroke:none"
         id="path96" /><path
         d="m 3144.44,5392.62 -50.53,-56.11 h 616.69 l 50.52,56.11 h -616.68"
         style="fill:#fefde8;fill-opacity:1;fill-rule:nonzero;stroke:none"
         id="path98" /><path
         d="m 4415.76,5392.62 -50.42,-56.11 h 616.65 l 50.58,56.11 h -616.81"
         style="fill:#fefde8;fill-opacity:1;fill-rule:nonzero;stroke:none"
         id="path100" /><path
         d="m 5687.09,5392.62 -50.57,-56.11 h 616.8 l 50.52,56.11 h -616.75"
         style="fill:#fefde8;fill-opacity:1;fill-rule:nonzero;stroke:none"
         id="path102" /><path
         d="m 2489.69,5392.62 -50.54,-56.11 h 654.76 l 50.53,56.11 h -654.75"
         style="fill:#4b505c;fill-opacity:1;fill-rule:nonzero;stroke:none"
         id="path104" /><path
         d="m 3761.12,5392.62 -50.52,-56.11 h 654.74 l 50.42,56.11 h -654.64"
         style="fill:#4b505c;fill-opacity:1;fill-rule:nonzero;stroke:none"
         id="path106" /><path
         d="m 5032.57,5392.62 -50.58,-56.11 h 654.53 l 50.57,56.11 h -654.52"
         style="fill:#4b505c;fill-opacity:1;fill-rule:nonzero;stroke:none"
         id="path108" /><path
         d="m 6253.32,5336.51 h 86.02 v 56.11 h -35.5 l -50.52,-56.11"
         style="fill:#4b505c;fill-opacity:1;fill-rule:nonzero;stroke:none"
         id="path110" /><path
         d="m 1621.94,6146.04 -151.85,-10.34 c -130.51,-8.86 -236.63,-132.46 -236.63,-275.39 v -849.04 c 0,-147.01 109.28,-266.62 243.94,-266.62 h 776.82 c 134.54,0 244.05,119.61 244.05,266.62 v 79.62 c 0,103.27 -38.85,246.64 -90.29,333.34 l -5.62,9.37 -487.98,562 12.58,-17.45 c -61.44,103.42 -192.51,175.62 -305.02,167.89"
         style="fill:#4b505c;fill-opacity:1;fill-rule:nonzero;stroke:none"
         id="path112" /><path
         d="m 1477.06,6014.75 c -72.89,-5 -132.86,-74.52 -132.86,-154.44 v -849.04 c 0,-80.02 60.08,-145.44 133.2,-145.44 h 776.82 c 73.23,0 133.08,65.42 133.08,145.44 v 79.62 c 0,79.96 -32.56,200.31 -72.43,267.41 l -480.89,553.92 c -39.88,67.16 -132.09,117.85 -205.2,112.96 l -151.72,-10.43"
         style="fill:#292930;fill-opacity:1;fill-rule:nonzero;stroke:none"
         id="path114" /><path
         d="m 1679.39,5795.73 c 0,-53.27 -39.65,-96.51 -88.49,-96.51 -48.85,0 -88.28,43.24 -88.28,96.51 0,53.36 39.43,96.66 88.28,96.66 48.84,0 88.49,-43.3 88.49,-96.66"
         style="fill:#c9a97e;fill-opacity:1;fill-rule:nonzero;stroke:none"
         id="path116" /><path
         d="m 1679.39,5069.11 c 0,-53.42 -39.65,-96.63 -88.49,-96.63 -48.85,0 -88.28,43.21 -88.28,96.63 0,53.34 39.43,96.53 88.28,96.53 48.84,0 88.49,-43.19 88.49,-96.53"
         style="fill:#c9a97e;fill-opacity:1;fill-rule:nonzero;stroke:none"
         id="path118" /><path
         d="m 2266.09,5069.11 c 0,-53.42 -39.65,-96.63 -88.28,-96.63 -48.96,0 -88.49,43.21 -88.49,96.63 0,53.34 39.53,96.53 88.49,96.53 48.63,0 88.28,-43.19 88.28,-96.53"
         style="fill:#c9a97e;fill-opacity:1;fill-rule:nonzero;stroke:none"
         id="path120" /><path
         d="M 5477.62,4643.85 H 2001.84 v -31.43 h 3475.78 v 31.43"
         style="fill:#fadfae;fill-opacity:1;fill-rule:nonzero;stroke:none"
         id="path122" /><path
         d="m 1623.44,5811.84 c 0,-26.77 -19.06,-48.47 -42.58,-48.47 -23.52,0 -42.58,21.7 -42.58,48.47 0,26.78 19.06,48.47 42.58,48.47 23.52,0 42.58,-21.69 42.58,-48.47"
         style="fill:#fadfae;fill-opacity:1;fill-rule:nonzero;stroke:none"
         id="path124" /><path
         d="m 1614.67,5085.85 c 0,-22.34 -15.77,-40.44 -35.23,-40.44 -19.45,0 -35.23,18.1 -35.23,40.44 0,22.33 15.78,40.42 35.23,40.42 19.46,0 35.23,-18.09 35.23,-40.42"
         style="fill:#fadfae;fill-opacity:1;fill-rule:nonzero;stroke:none"
         id="path126" /><path
         d="m 2205.67,5087.3 c 0,-22.11 -17.94,-40.04 -40.06,-40.04 -22.12,0 -40.06,17.93 -40.06,40.04 0,22.13 17.94,40.07 40.06,40.07 22.12,0 40.06,-17.94 40.06,-40.07"
         style="fill:#fadfae;fill-opacity:1;fill-rule:nonzero;stroke:none"
         id="path128" /></g></g></svg>
